M48
; DRILL file {KiCad 7.0.7} date 2023 October 16, Monday 19:58:43
; FORMAT={-:-/ absolute / inch / decimal}
; #@! TF.CreationDate,2023-10-16T19:58:43+09:00
; #@! TF.GenerationSoftware,Kicad,Pcbnew,7.0.7
; #@! TF.FileFunction,Plated,1,2,PTH
FMAT,2
INCH
; #@! TA.AperFunction,Plated,PTH,ViaDrill
T1C0.0157
; #@! TA.AperFunction,Plated,PTH,ComponentDrill
T2C0.0276
; #@! TA.AperFunction,Plated,PTH,ComponentDrill
T3C0.0579
%
G90
G05
T1
X1.4705Y4.4039
X2.4846Y4.3535
X3.3587Y4.3165
X4.0728Y4.1516
X4.8272Y3.9752
X4.8862Y3.9386
X6.102Y3.6697
X6.1563Y4.5051
X6.3339Y2.6067
X6.3386Y2.7327
X6.4035Y2.4791
X6.4063Y2.6591
X6.4228Y4.6071
X6.4228Y4.4528
X6.4228Y3.9713
X6.5181Y4.0063
X6.5394Y3.5559
X6.587Y3.952
X6.7036Y3.5463
X6.728Y5.1677
X6.7323Y4.4634
X6.737Y4.0024
X6.793Y3.9691
X6.7935Y3.7667
X6.8177Y4.4291
X6.8201Y4.7626
X6.8239Y3.9381
X6.8437Y3.3512
X6.889Y4.613
X6.8917Y4.3976
X6.9531Y3.5315
X6.9819Y2.6205
X7.1484Y3.0748
X7.1925Y3.5409
X7.2657Y3.0461
X7.2815Y3.4004
X7.2886Y4.0252
X7.3031Y3.9807
X7.3185Y3.939
X7.7476Y3.387
X7.8079Y2.622
X8.3961Y2.7827
X9.5008Y3.6236
X10.6969Y4.4945
X11.7402Y4.4541
X12.6134Y4.4256
T3
X0.2656Y4.2371
X0.3172Y4.2946
X0.4281Y4.9871
X0.4797Y5.0446
X0.5141Y4.3143
X0.5156Y4.3371
X0.5906Y5.7371
X0.6422Y5.7946
X0.6766Y5.0643
X0.6781Y5.0871
X0.8391Y5.8143
X0.8406Y5.8371
X1.0594Y2.6433
X1.111Y2.7008
X1.3078Y2.7205
X1.3094Y2.7433
X1.4594Y4.1433
X1.4654Y3.3933
X1.511Y4.2008
X1.517Y3.4508
X1.5281Y5.6433
X1.5281Y4.8933
X1.5797Y5.7008
X1.5797Y4.9508
X1.7078Y4.2205
X1.7094Y4.2433
X1.7138Y3.4705
X1.7154Y3.4933
X1.7766Y5.7205
X1.7766Y4.9705
X1.7781Y5.7433
X1.7781Y4.9933
X1.9969Y2.6433
X2.0485Y2.7008
X2.2453Y2.7205
X2.2469Y2.7433
X2.2781Y5.6433
X2.3297Y5.7008
X2.4656Y4.8933
X2.4906Y4.1433
X2.5172Y4.9508
X2.5266Y5.7205
X2.5281Y5.7433
X2.5422Y4.2008
X2.6841Y3.3933
X2.7141Y4.9705
X2.7156Y4.9933
X2.7357Y3.4508
X2.7391Y4.2205
X2.7406Y4.2433
X2.9326Y3.4705
X2.9341Y3.4933
X3.0281Y5.7058
X3.0797Y5.7633
X3.2766Y5.783
X3.2781Y5.8058
X3.3826Y4.8962
X3.396Y4.1263
X3.445Y4.9417
X3.4584Y4.1718
X3.5685Y3.3243
X3.6309Y3.3699
X3.6353Y2.5422
X3.6417Y4.9201
X3.648Y4.9421
X3.655Y4.1501
X3.6613Y4.1721
X3.6977Y2.5877
X3.8275Y3.3482
X3.8338Y3.3702
X3.8944Y2.566
X3.9007Y2.588
X3.9041Y5.5534
X3.9665Y5.5989
X4.1162Y4.7403
X4.1296Y3.9703
X4.1631Y5.5773
X4.1694Y5.5993
X4.1786Y4.7858
X4.192Y4.0158
X4.3021Y3.1684
X4.3645Y3.2139
X4.3753Y4.7641
X4.3816Y4.7861
X4.3886Y3.9942
X4.3949Y4.0162
X4.5611Y3.1922
X4.5674Y3.2143
X4.6377Y5.3975
X4.7001Y5.443
X4.8297Y2.2873
X4.8499Y4.5844
X4.8632Y3.8144
X4.8921Y2.3328
X4.8967Y5.4213
X4.903Y5.4433
X4.9123Y4.6299
X4.9256Y3.8599
X5.0357Y3.0125
X5.0888Y2.3111
X5.095Y2.3331
X5.0981Y3.058
X5.1089Y4.6082
X5.1152Y4.6302
X5.1222Y3.8382
X5.1285Y3.8602
X5.2947Y3.0363
X5.301Y3.0583
X5.3713Y5.2416
X5.4337Y5.2871
X5.5835Y4.4284
X5.5968Y3.6585
X5.6304Y5.2654
X5.6366Y5.2874
X5.6459Y4.4739
X5.6592Y3.704
X5.7693Y2.8565
X5.8317Y2.902
X5.8425Y4.4523
X5.8488Y4.4743
X5.8558Y3.6823
X5.8621Y3.7043
X5.9303Y2.0522
X5.9927Y2.0977
X6.0284Y2.8804
X6.0346Y2.9024
X6.1049Y5.0856
X6.1673Y5.1311
X6.1894Y2.076
X6.1957Y2.098
X6.364Y5.1095
X6.3703Y5.1315
X6.9619Y4.2983
X7.0004Y4.3653
X7.0825Y2.7932
X7.121Y2.8601
X7.1575Y5.1082
X7.1856Y4.4481
X7.1888Y4.4255
X7.196Y5.1751
X7.3062Y2.943
X7.3094Y2.9203
X7.3225Y3.6082
X7.361Y3.6751
X7.3812Y5.258
X7.3844Y5.2353
X7.5462Y3.758
X7.5494Y3.7353
X7.6955Y4.4543
X7.734Y4.5212
X7.8161Y2.9491
X7.8546Y3.0161
X7.8803Y2.196
X7.8911Y5.2641
X7.9188Y2.263
X7.9192Y4.6041
X7.9224Y4.5814
X7.9296Y5.3311
X8.0398Y3.0989
X8.043Y3.0762
X8.0561Y3.7641
X8.0946Y3.8311
X8.1041Y2.3458
X8.1073Y2.3231
X8.1148Y5.4139
X8.118Y5.3912
X8.2798Y3.9139
X8.283Y3.8912
X8.4291Y4.6102
X8.4676Y4.6772
X8.5497Y3.105
X8.5882Y3.172
X8.6247Y5.42
X8.6528Y4.76
X8.6561Y4.7373
X8.6632Y5.487
X8.7735Y3.2548
X8.7767Y3.2322
X8.7897Y3.92
X8.8282Y3.987
X8.8485Y5.5698
X8.8517Y5.5472
X9.0135Y4.0698
X9.0167Y4.0472
X9.1627Y4.7661
X9.2012Y4.8331
X9.2833Y3.261
X9.3218Y3.3279
X9.3583Y5.576
X9.3865Y4.9159
X9.3897Y4.8933
X9.3968Y5.6429
X9.4515Y2.4659
X9.49Y2.5329
X9.5071Y3.4108
X9.5103Y3.3881
X9.5233Y4.076
X9.5618Y4.1429
X9.5821Y5.7258
X9.5853Y5.7031
X9.6752Y2.6157
X9.6784Y2.5931
X9.7471Y4.2258
X9.7503Y4.2031
X10.0327Y4.8808
X10.0843Y4.9382
X10.1702Y3.3495
X10.2218Y3.407
X10.2352Y5.6945
X10.2812Y4.9579
X10.2827Y4.9808
X10.2868Y5.752
X10.414Y4.0995
X10.4187Y3.4267
X10.4202Y3.4495
X10.4656Y4.157
X10.4837Y5.7717
X10.4852Y5.7945
X10.6624Y4.1767
X10.664Y4.1995
X10.7827Y4.8495
X10.8343Y4.907
X10.9202Y3.3495
X10.9702Y5.5995
X10.9718Y3.407
X11.0218Y5.657
X11.0312Y4.9267
X11.0327Y4.9495
X11.164Y4.0995
X11.1687Y3.4267
X11.1702Y3.4495
X11.2156Y4.157
X11.2187Y5.6767
X11.2202Y5.6995
X11.4124Y4.1767
X11.414Y4.1995
X11.5327Y4.8495
X11.5843Y4.907
X11.7812Y4.9267
X11.7827Y4.9495
X11.9515Y3.3495
X12.0031Y3.407
X12.0952Y5.5995
X12.1468Y5.657
X12.1999Y3.4267
X12.2015Y3.4495
X12.3437Y5.6767
X12.3452Y5.6995
X12.3827Y4.0995
X12.4343Y4.157
X12.4702Y4.8495
X12.5218Y4.907
X12.6312Y4.1767
X12.6327Y4.1995
X12.6702Y2.5995
X12.7187Y4.9267
X12.7202Y4.9495
X12.7218Y2.657
X12.9187Y2.6767
X12.9202Y2.6995
X12.9827Y3.3495
X13.0343Y3.407
X13.2312Y3.4267
X13.2327Y3.4495
T2
G00X6.5692Y5.9863
M15
G01X6.5692Y5.9391
M16
G05
G00X6.5692Y5.8091
M15
G01X6.5692Y5.7619
M16
G05
G00X6.8566Y5.9863
M15
G01X6.8566Y5.9391
M16
G05
G00X6.8566Y5.8091
M15
G01X6.8566Y5.7619
M16
G05
T0
M30
