%TF.GenerationSoftware,KiCad,Pcbnew,7.0.7*%
%TF.CreationDate,2023-10-16T19:58:37+09:00*%
%TF.ProjectId,Purin_PCB,50757269-6e5f-4504-9342-2e6b69636164,rev?*%
%TF.SameCoordinates,Original*%
%TF.FileFunction,Soldermask,Bot*%
%TF.FilePolarity,Negative*%
%FSLAX46Y46*%
G04 Gerber Fmt 4.6, Leading zero omitted, Abs format (unit mm)*
G04 Created by KiCad (PCBNEW 7.0.7) date 2023-10-16 19:58:37*
%MOMM*%
%LPD*%
G01*
G04 APERTURE LIST*
G04 Aperture macros list*
%AMRoundRect*
0 Rectangle with rounded corners*
0 $1 Rounding radius*
0 $2 $3 $4 $5 $6 $7 $8 $9 X,Y pos of 4 corners*
0 Add a 4 corners polygon primitive as box body*
4,1,4,$2,$3,$4,$5,$6,$7,$8,$9,$2,$3,0*
0 Add four circle primitives for the rounded corners*
1,1,$1+$1,$2,$3*
1,1,$1+$1,$4,$5*
1,1,$1+$1,$6,$7*
1,1,$1+$1,$8,$9*
0 Add four rect primitives between the rounded corners*
20,1,$1+$1,$2,$3,$4,$5,0*
20,1,$1+$1,$4,$5,$6,$7,0*
20,1,$1+$1,$6,$7,$8,$9,0*
20,1,$1+$1,$8,$9,$2,$3,0*%
%AMHorizOval*
0 Thick line with rounded ends*
0 $1 width*
0 $2 $3 position (X,Y) of the first rounded end (center of the circle)*
0 $4 $5 position (X,Y) of the second rounded end (center of the circle)*
0 Add line between two ends*
20,1,$1,$2,$3,$4,$5,0*
0 Add two circle primitives to create the rounded ends*
1,1,$1,$2,$3*
1,1,$1,$4,$5*%
G04 Aperture macros list end*
%ADD10RoundRect,0.250000X-0.475000X0.250000X-0.475000X-0.250000X0.475000X-0.250000X0.475000X0.250000X0*%
%ADD11RoundRect,0.250000X0.475000X-0.250000X0.475000X0.250000X-0.475000X0.250000X-0.475000X-0.250000X0*%
%ADD12RoundRect,0.250000X-0.250000X-0.475000X0.250000X-0.475000X0.250000X0.475000X-0.250000X0.475000X0*%
%ADD13C,2.250000*%
%ADD14HorizOval,2.250000X0.020000X0.290000X-0.020000X-0.290000X0*%
%ADD15HorizOval,2.250000X0.655001X0.730000X-0.655001X-0.730000X0*%
%ADD16C,1.750000*%
%ADD17C,3.987800*%
%ADD18HorizOval,2.250000X-0.040731X0.287821X0.040731X-0.287821X0*%
%ADD19HorizOval,2.250000X0.488912X0.850230X-0.488912X-0.850230X0*%
%ADD20HorizOval,2.250000X0.079857X0.279505X-0.079857X-0.279505X0*%
%ADD21HorizOval,2.250000X0.792463X0.577865X-0.792463X-0.577865X0*%
%ADD22C,3.048000*%
%ADD23HorizOval,2.250000X0.792463X0.577865X-0.792463X-0.577865X0*%
%ADD24RoundRect,0.225000X0.375000X-0.225000X0.375000X0.225000X-0.375000X0.225000X-0.375000X-0.225000X0*%
%ADD25RoundRect,0.225000X0.320025X-0.298050X0.413585X0.142116X-0.320025X0.298050X-0.413585X-0.142116X0*%
%ADD26RoundRect,0.225000X0.413585X-0.142116X0.320025X0.298050X-0.413585X0.142116X-0.320025X-0.298050X0*%
%ADD27R,1.500000X0.550000*%
%ADD28R,0.550000X1.500000*%
%ADD29R,1.100000X1.800000*%
%ADD30R,1.400000X1.200000*%
%ADD31RoundRect,0.250000X-0.450000X0.262500X-0.450000X-0.262500X0.450000X-0.262500X0.450000X0.262500X0*%
%ADD32R,0.500000X2.250000*%
%ADD33O,1.700000X2.700000*%
%ADD34RoundRect,0.250000X-0.625000X0.375000X-0.625000X-0.375000X0.625000X-0.375000X0.625000X0.375000X0*%
%ADD35RoundRect,0.250000X-0.262500X-0.450000X0.262500X-0.450000X0.262500X0.450000X-0.262500X0.450000X0*%
G04 APERTURE END LIST*
D10*
%TO.C,C7*%
X172910000Y82150000D03*
X172910000Y80250000D03*
%TD*%
D11*
%TO.C,C6*%
X165640000Y80400000D03*
X165640000Y82300000D03*
%TD*%
D12*
%TO.C,C5*%
X164842500Y112810000D03*
X166742500Y112810000D03*
%TD*%
%TO.C,C4*%
X164690000Y106690000D03*
X166590000Y106690000D03*
%TD*%
%TO.C,C3*%
X164760000Y103710000D03*
X166660000Y103710000D03*
%TD*%
%TO.C,C2*%
X164742500Y109960000D03*
X166642500Y109960000D03*
%TD*%
D11*
%TO.C,C1*%
X177950000Y91820000D03*
X177950000Y93720000D03*
%TD*%
D13*
%TO.C,MX16*%
X17224567Y129212133D03*
D14*
X17204567Y128922133D03*
D13*
X12184567Y128132133D03*
D15*
X11529568Y127402133D03*
D16*
X19764567Y124132133D03*
D17*
X14684567Y124132133D03*
D16*
X9604567Y124132133D03*
%TD*%
D13*
%TO.C,MX4*%
X83264567Y147468383D03*
D14*
X83244567Y147178383D03*
D13*
X78224567Y146388383D03*
D15*
X77569568Y145658383D03*
D16*
X85804567Y142388383D03*
D17*
X80724567Y142388383D03*
D16*
X75644567Y142388383D03*
%TD*%
D13*
%TO.C,MX11*%
X224750697Y141473947D03*
D18*
X224791428Y141186125D03*
D13*
X220045377Y139369672D03*
D19*
X219556467Y138519442D03*
D16*
X228291383Y137033052D03*
D17*
X223322393Y135976861D03*
D16*
X218353403Y134920670D03*
%TD*%
D13*
%TO.C,MX53*%
X222845697Y82672947D03*
D18*
X222886428Y82385125D03*
D13*
X218140377Y80568672D03*
D19*
X217651467Y79718442D03*
D16*
X226386383Y78232052D03*
D17*
X221417393Y77175861D03*
D16*
X216448403Y76119670D03*
%TD*%
D13*
%TO.C,MX50*%
X153279814Y73720577D03*
D20*
X153199957Y73441073D03*
D13*
X148125406Y73712053D03*
D21*
X147332944Y73134186D03*
D16*
X154708118Y68223492D03*
D17*
X149739128Y69279683D03*
D16*
X144770138Y70335874D03*
%TD*%
D13*
%TO.C,MX43*%
X289915041Y106667685D03*
D14*
X289895041Y106377685D03*
D13*
X284875041Y105587685D03*
D15*
X284220042Y104857685D03*
D16*
X292455041Y101587685D03*
D17*
X287375041Y101587685D03*
D16*
X282295041Y101587685D03*
%TD*%
D13*
%TO.C,MX14*%
X284993791Y144767685D03*
D14*
X284973791Y144477685D03*
D13*
X279953791Y143687685D03*
D15*
X279298792Y142957685D03*
D16*
X287533791Y139687685D03*
D17*
X282453791Y139687685D03*
D16*
X277373791Y139687685D03*
%TD*%
D13*
%TO.C,MX66*%
X328173791Y68567685D03*
D14*
X328153791Y68277685D03*
D13*
X323133791Y67487685D03*
D15*
X322478792Y66757685D03*
D16*
X330713791Y63487685D03*
D17*
X325633791Y63487685D03*
D16*
X320553791Y63487685D03*
%TD*%
D13*
%TO.C,MX25*%
X219782383Y120904053D03*
D18*
X219823114Y120616231D03*
D13*
X215077063Y118799778D03*
D19*
X214588153Y117949548D03*
D16*
X223323069Y116463158D03*
D17*
X218354079Y115406967D03*
D16*
X213385089Y114350776D03*
%TD*%
D13*
%TO.C,MX20*%
X111292025Y121567856D03*
D20*
X111212168Y121288352D03*
D13*
X106137617Y121559332D03*
D21*
X105345155Y120981465D03*
D16*
X112720329Y116070771D03*
D17*
X107751339Y117126962D03*
D16*
X102782349Y118183153D03*
%TD*%
D13*
%TO.C,MX2*%
X45164567Y145880883D03*
D14*
X45144567Y145590883D03*
D13*
X40124567Y144800883D03*
D15*
X39469568Y144070883D03*
D16*
X47704567Y140800883D03*
D17*
X42624567Y140800883D03*
D16*
X37544567Y140800883D03*
%TD*%
D13*
%TO.C,MX1*%
X21352067Y148262133D03*
D14*
X21332067Y147972133D03*
D13*
X16312067Y147182133D03*
D15*
X15657068Y146452133D03*
D16*
X23892067Y143182133D03*
D17*
X18812067Y143182133D03*
D16*
X13732067Y143182133D03*
%TD*%
D13*
%TO.C,MX23*%
X182514959Y112982618D03*
D18*
X182555690Y112694796D03*
D13*
X177809639Y110878343D03*
D19*
X177320729Y110028113D03*
D16*
X186055645Y108541723D03*
D17*
X181086655Y107485532D03*
D16*
X176117665Y106429341D03*
%TD*%
D13*
%TO.C,MX38*%
X191674273Y95452512D03*
D18*
X191715004Y95164690D03*
D13*
X186968953Y93348237D03*
D19*
X186480043Y92498007D03*
D16*
X195214959Y91011617D03*
D17*
X190245969Y89955426D03*
D16*
X185276979Y88899235D03*
%TD*%
D13*
%TO.C,MX32*%
X43418317Y107780883D03*
D14*
X43398317Y107490883D03*
D13*
X38378317Y106700883D03*
D15*
X37723318Y105970883D03*
D16*
X45958317Y102700883D03*
D17*
X40878317Y102700883D03*
D16*
X35798317Y102700883D03*
%TD*%
D13*
%TO.C,MX17*%
X45164567Y126830883D03*
D14*
X45144567Y126540883D03*
D13*
X40124567Y125750883D03*
D15*
X39469568Y125020883D03*
D16*
X47704567Y121750883D03*
D17*
X42624567Y121750883D03*
D16*
X37544567Y121750883D03*
%TD*%
D13*
%TO.C,MX41*%
X247575409Y107334665D03*
D18*
X247616140Y107046843D03*
D13*
X242870089Y105230390D03*
D19*
X242381179Y104380160D03*
D16*
X251116095Y102893770D03*
D17*
X246147105Y101837579D03*
D16*
X241178115Y100781388D03*
%TD*%
D13*
%TO.C,MX15*%
X313568791Y144767685D03*
D14*
X313548791Y144477685D03*
D13*
X308528791Y143687685D03*
D15*
X307873792Y142957685D03*
D17*
X322966791Y131432685D03*
D22*
X322966791Y146672685D03*
D16*
X316108791Y139687685D03*
D17*
X311028791Y139687685D03*
D16*
X305948791Y139687685D03*
D17*
X299090791Y131432685D03*
D22*
X299090791Y146672685D03*
%TD*%
D13*
%TO.C,MX3*%
X64214567Y145880883D03*
D14*
X64194567Y145590883D03*
D13*
X59174567Y144800883D03*
D15*
X58519568Y144070883D03*
D16*
X66754567Y140800883D03*
D17*
X61674567Y140800883D03*
D16*
X56594567Y140800883D03*
%TD*%
D13*
%TO.C,MX21*%
X129925737Y117607139D03*
D20*
X129845880Y117327635D03*
D13*
X124771329Y117598615D03*
D21*
X123978867Y117020748D03*
D16*
X131354041Y112110054D03*
D17*
X126385051Y113166245D03*
D16*
X121416061Y114222436D03*
%TD*%
D13*
%TO.C,MX10*%
X206116985Y137513230D03*
D18*
X206157716Y137225408D03*
D13*
X201411665Y135408955D03*
D19*
X200922755Y134558725D03*
D16*
X209657671Y133072335D03*
D17*
X204688681Y132016144D03*
D16*
X199719691Y130959953D03*
%TD*%
D13*
%TO.C,MX52*%
X204211986Y78712229D03*
D18*
X204252717Y78424407D03*
D13*
X199506666Y76607954D03*
D19*
X199017756Y75757724D03*
D16*
X207752672Y74271334D03*
D17*
X202783682Y73215143D03*
D16*
X197814692Y72158952D03*
%TD*%
D13*
%TO.C,MX58*%
X336111291Y87617685D03*
D14*
X336091291Y87327685D03*
D13*
X331071291Y86537685D03*
D15*
X330416292Y85807685D03*
D16*
X338651291Y82537685D03*
D17*
X333571291Y82537685D03*
D16*
X328491291Y82537685D03*
%TD*%
D13*
%TO.C,MX22*%
X148559449Y113646421D03*
D20*
X148479592Y113366917D03*
D13*
X143405041Y113637897D03*
D21*
X142612579Y113060030D03*
D16*
X149987753Y108149336D03*
D17*
X145018763Y109205527D03*
D16*
X140049773Y110261718D03*
%TD*%
D13*
%TO.C,MX44*%
X320871291Y106667685D03*
D14*
X320851291Y106377685D03*
D13*
X315831291Y105587685D03*
D15*
X315176292Y104857685D03*
D22*
X330269291Y94602685D03*
D17*
X330269291Y109842685D03*
D16*
X323411291Y101587685D03*
D17*
X318331291Y101587685D03*
D16*
X313251291Y101587685D03*
D22*
X306393291Y94602685D03*
D17*
X306393291Y109842685D03*
%TD*%
D13*
%TO.C,MX28*%
X280231291Y125717685D03*
D14*
X280211291Y125427685D03*
D13*
X275191291Y124637685D03*
D15*
X274536292Y123907685D03*
D16*
X282771291Y120637685D03*
D17*
X277691291Y120637685D03*
D16*
X272611291Y120637685D03*
%TD*%
D13*
%TO.C,MX34*%
X92996949Y105971363D03*
D20*
X92917092Y105691859D03*
D13*
X87842541Y105962839D03*
D21*
X87050079Y105384972D03*
D16*
X94425253Y100474278D03*
D17*
X89456263Y101530469D03*
D16*
X84487273Y102586660D03*
%TD*%
D13*
%TO.C,MX56*%
X283723791Y87617685D03*
D14*
X283703791Y87327685D03*
D13*
X278683791Y86537685D03*
D15*
X278028792Y85807685D03*
D16*
X286263791Y82537685D03*
D17*
X281183791Y82537685D03*
D16*
X276103791Y82537685D03*
%TD*%
D13*
%TO.C,MX31*%
X13097067Y110162133D03*
D14*
X13077067Y109872133D03*
D13*
X8057067Y109082133D03*
D15*
X7402068Y108352133D03*
D16*
X15637067Y105082133D03*
D17*
X10557067Y105082133D03*
D16*
X5477067Y105082133D03*
%TD*%
D13*
%TO.C,MX30*%
X323093791Y125717685D03*
D14*
X323073791Y125427685D03*
D13*
X318053791Y124637685D03*
D15*
X317398792Y123907685D03*
D16*
X325633791Y120637685D03*
D17*
X320553791Y120637685D03*
D16*
X315473791Y120637685D03*
%TD*%
D13*
%TO.C,MX33*%
X69612067Y107780883D03*
D14*
X69592067Y107490883D03*
D13*
X64572067Y106700883D03*
D15*
X63917068Y105970883D03*
D16*
X72152067Y102700883D03*
D17*
X67072067Y102700883D03*
D16*
X61992067Y102700883D03*
%TD*%
D13*
%TO.C,MX8*%
X161804575Y130339268D03*
D20*
X161724718Y130059764D03*
D13*
X156650167Y130330744D03*
D21*
X155857705Y129752877D03*
D16*
X163232879Y124842183D03*
D17*
X158263889Y125898374D03*
D16*
X153294899Y126954565D03*
%TD*%
D13*
%TO.C,MX49*%
X134646103Y77681295D03*
D20*
X134566246Y77401791D03*
D13*
X129491695Y77672771D03*
D21*
X128699233Y77094904D03*
D16*
X136074407Y72184210D03*
D17*
X131105417Y73240401D03*
D16*
X126136427Y74296592D03*
%TD*%
D13*
%TO.C,MX42*%
X270865041Y106667685D03*
D14*
X270845041Y106377685D03*
D13*
X265825041Y105587685D03*
D15*
X265170042Y104857685D03*
D16*
X273405041Y101587685D03*
D17*
X268325041Y101587685D03*
D16*
X263245041Y101587685D03*
%TD*%
D13*
%TO.C,MX39*%
X210307985Y99413230D03*
D18*
X210348716Y99125408D03*
D13*
X205602665Y97308955D03*
D19*
X205113755Y96458725D03*
D16*
X213848671Y94972335D03*
D17*
X208879681Y93916144D03*
D16*
X203910691Y92859953D03*
%TD*%
D13*
%TO.C,MX36*%
X130264372Y98049928D03*
D20*
X130184515Y97770424D03*
D13*
X125109964Y98041404D03*
D21*
X124317502Y97463537D03*
D16*
X131692676Y92552843D03*
D17*
X126723686Y93609034D03*
D16*
X121754696Y94665225D03*
%TD*%
D13*
%TO.C,MX40*%
X228941697Y103373947D03*
D18*
X228982428Y103086125D03*
D13*
X224236377Y101269672D03*
D19*
X223747467Y100419442D03*
D16*
X232482383Y98933052D03*
D17*
X227513393Y97876861D03*
D16*
X222544403Y96820670D03*
%TD*%
D13*
%TO.C,MX6*%
X124537152Y138260703D03*
D20*
X124457295Y137981199D03*
D13*
X119382744Y138252179D03*
D21*
X118590282Y137674312D03*
D16*
X125965456Y132763618D03*
D17*
X120996466Y133819809D03*
D16*
X116027476Y134876000D03*
%TD*%
D13*
%TO.C,MX54*%
X241479409Y86633665D03*
D18*
X241520140Y86345843D03*
D13*
X236774089Y84529390D03*
D19*
X236285179Y83679160D03*
D16*
X245020095Y82192770D03*
D17*
X240051105Y81136579D03*
D16*
X235082115Y80080388D03*
%TD*%
D13*
%TO.C,MX37*%
X148898084Y94089210D03*
D20*
X148818227Y93809706D03*
D13*
X143743676Y94080686D03*
D21*
X142951214Y93502819D03*
D16*
X150326388Y88592125D03*
D17*
X145357398Y89648316D03*
D16*
X140388408Y90704507D03*
%TD*%
D13*
%TO.C,MX47*%
X97378679Y85602730D03*
D20*
X97298822Y85323226D03*
D13*
X92224271Y85594206D03*
D21*
X91431809Y85016339D03*
D16*
X98806983Y80105645D03*
D17*
X93837993Y81161836D03*
D16*
X88869003Y82218027D03*
%TD*%
D13*
%TO.C,MX57*%
X309917541Y87617685D03*
D14*
X309897541Y87327685D03*
D13*
X304877541Y86537685D03*
D15*
X304222542Y85807685D03*
D16*
X312457541Y82537685D03*
D17*
X307377541Y82537685D03*
D16*
X302297541Y82537685D03*
%TD*%
D13*
%TO.C,MX45*%
X43570817Y88730883D03*
D14*
X43550817Y88440883D03*
D13*
X38530817Y87650883D03*
D15*
X37875818Y86920883D03*
D17*
X52968817Y75395883D03*
D22*
X52968817Y90635883D03*
D16*
X46110817Y83650883D03*
D17*
X41030817Y83650883D03*
D16*
X35950817Y83650883D03*
D17*
X29092817Y75395883D03*
D22*
X29092817Y90635883D03*
%TD*%
D13*
%TO.C,MX46*%
X74527067Y88730883D03*
D14*
X74507067Y88440883D03*
D13*
X69487067Y87650883D03*
D15*
X68832068Y86920883D03*
D16*
X77067067Y83650883D03*
D17*
X71987067Y83650883D03*
D16*
X66907067Y83650883D03*
%TD*%
D13*
%TO.C,MX13*%
X266324791Y147180685D03*
D14*
X266304791Y146890685D03*
D13*
X261284791Y146100685D03*
D15*
X260629792Y145370685D03*
D16*
X268864791Y142100685D03*
D17*
X263784791Y142100685D03*
D16*
X258704791Y142100685D03*
%TD*%
D13*
%TO.C,MX35*%
X111630660Y102010646D03*
D20*
X111550803Y101731142D03*
D13*
X106476252Y102002122D03*
D21*
X105683790Y101424255D03*
D16*
X113058964Y96513561D03*
D17*
X108089974Y97569752D03*
D16*
X103120984Y98625943D03*
%TD*%
D13*
%TO.C,MX27*%
X261181291Y126511435D03*
D14*
X261161291Y126221435D03*
D13*
X256141291Y125431435D03*
D15*
X255486292Y124701435D03*
D16*
X263721291Y121431435D03*
D17*
X258641291Y121431435D03*
D16*
X253561291Y121431435D03*
%TD*%
D13*
%TO.C,MX61*%
X99077190Y65735671D03*
D20*
X98997333Y65456167D03*
D13*
X93922782Y65727147D03*
D21*
X93130320Y65149280D03*
D16*
X100505494Y60238586D03*
D17*
X95536504Y61294777D03*
D16*
X90567514Y62350968D03*
%TD*%
D17*
%TO.C,MX64*%
X191021748Y59678901D03*
D22*
X194190322Y44771931D03*
D16*
X199446195Y53030151D03*
D17*
X204415185Y54086342D03*
D16*
X209384175Y55142533D03*
D17*
X214376000Y64643000D03*
D22*
X217544574Y49736031D03*
D19*
X200649259Y56628923D03*
D13*
X201138169Y57479153D03*
D18*
X205884220Y59295606D03*
D13*
X205843489Y59583428D03*
%TD*%
%TO.C,MX65*%
X245750237Y66439505D03*
D18*
X245790968Y66151683D03*
D13*
X241044917Y64335230D03*
D19*
X240556007Y63485000D03*
D16*
X249290923Y61998610D03*
D17*
X244321933Y60942419D03*
D16*
X239352943Y59886228D03*
%TD*%
D13*
%TO.C,MX7*%
X143170864Y134299985D03*
D20*
X143091007Y134020481D03*
D13*
X138016456Y134291461D03*
D23*
X137223994Y133713594D03*
D16*
X144599168Y128802900D03*
D17*
X139630178Y129859091D03*
D16*
X134661188Y130915282D03*
%TD*%
D13*
%TO.C,MX60*%
X57070817Y69680883D03*
D14*
X57050817Y69390883D03*
D13*
X52030817Y68600883D03*
D15*
X51375818Y67870883D03*
D16*
X59610817Y64600883D03*
D17*
X54530817Y64600883D03*
D16*
X49450817Y64600883D03*
%TD*%
D13*
%TO.C,MX48*%
X116012391Y81642012D03*
D20*
X115932534Y81362508D03*
D13*
X110857983Y81633488D03*
D21*
X110065521Y81055621D03*
D16*
X117440695Y76144927D03*
D17*
X112471705Y77201118D03*
D16*
X107502715Y78257309D03*
%TD*%
D13*
%TO.C,MX9*%
X187483274Y133552512D03*
D18*
X187524005Y133264690D03*
D13*
X182777954Y131448237D03*
D19*
X182289044Y130598007D03*
D16*
X191023960Y129111617D03*
D17*
X186054970Y128055426D03*
D16*
X181085980Y126999235D03*
%TD*%
D13*
%TO.C,MX63*%
X157370189Y53289671D03*
D20*
X157290332Y53010167D03*
D13*
X152215781Y53281147D03*
D21*
X151423319Y52703280D03*
D16*
X158798493Y47792586D03*
D17*
X153829503Y48848777D03*
D16*
X148860513Y49904968D03*
%TD*%
D13*
%TO.C,MX26*%
X238416095Y124864771D03*
D18*
X238456826Y124576949D03*
D13*
X233710775Y122760496D03*
D19*
X233221865Y121910266D03*
D16*
X241956781Y120423876D03*
D17*
X236987791Y119367685D03*
D16*
X232018801Y118311494D03*
%TD*%
D13*
%TO.C,MX18*%
X68977067Y126830883D03*
D14*
X68957067Y126540883D03*
D13*
X63937067Y125750883D03*
D15*
X63282068Y125020883D03*
D16*
X71517067Y121750883D03*
D17*
X66437067Y121750883D03*
D16*
X61357067Y121750883D03*
%TD*%
D13*
%TO.C,MX19*%
X92658313Y125528574D03*
D20*
X92578456Y125249070D03*
D13*
X87503905Y125520050D03*
D21*
X86711443Y124942183D03*
D16*
X94086617Y120031489D03*
D17*
X89117627Y121087680D03*
D16*
X84148637Y122143871D03*
%TD*%
D13*
%TO.C,MX24*%
X201148671Y116943335D03*
D18*
X201189402Y116655513D03*
D13*
X196443351Y114839060D03*
D19*
X195954441Y113988830D03*
D16*
X204689357Y112502440D03*
D17*
X199720367Y111446249D03*
D16*
X194751377Y110390058D03*
%TD*%
D13*
%TO.C,MX29*%
X299281291Y125717685D03*
D14*
X299261291Y125427685D03*
D13*
X294241291Y124637685D03*
D15*
X293586292Y123907685D03*
D16*
X301821291Y120637685D03*
D17*
X296741291Y120637685D03*
D16*
X291661291Y120637685D03*
%TD*%
D13*
%TO.C,MX51*%
X185578274Y74751512D03*
D18*
X185619005Y74463690D03*
D13*
X180872954Y72647237D03*
D19*
X180384044Y71797007D03*
D16*
X189118960Y70310617D03*
D17*
X184149970Y69254426D03*
D16*
X179180980Y68198235D03*
%TD*%
D13*
%TO.C,MX55*%
X264673791Y87617685D03*
D14*
X264653791Y87327685D03*
D13*
X259633791Y86537685D03*
D15*
X258978792Y85807685D03*
D16*
X267213791Y82537685D03*
D17*
X262133791Y82537685D03*
D16*
X257053791Y82537685D03*
%TD*%
D13*
%TO.C,MX62*%
X129414199Y59260884D03*
D20*
X129334342Y58981380D03*
D13*
X124259791Y59252360D03*
D21*
X123467329Y58674493D03*
D22*
X136098376Y45505579D03*
D17*
X139266950Y60412549D03*
D16*
X130842503Y53763799D03*
D17*
X125873513Y54819990D03*
D16*
X120904523Y55876181D03*
D22*
X112744124Y50469679D03*
D17*
X115912698Y65376648D03*
%TD*%
D13*
%TO.C,MX12*%
X243384409Y145434665D03*
D18*
X243425140Y145146843D03*
D13*
X238679089Y143330390D03*
D19*
X238190179Y142480160D03*
D16*
X246925095Y140993770D03*
D17*
X241956105Y139937579D03*
D16*
X236987115Y138881388D03*
%TD*%
D13*
%TO.C,MX5*%
X105903440Y142221421D03*
D20*
X105823583Y141941917D03*
D13*
X100749032Y142212897D03*
D21*
X99956570Y141635030D03*
D16*
X107331744Y136724336D03*
D17*
X102362754Y137780527D03*
D16*
X97393764Y138836718D03*
%TD*%
D13*
%TO.C,MX59*%
X33258317Y69680883D03*
D14*
X33238317Y69390883D03*
D13*
X28218317Y68600883D03*
D15*
X27563318Y67870883D03*
D16*
X35798317Y64600883D03*
D17*
X30718317Y64600883D03*
D16*
X25638317Y64600883D03*
%TD*%
D24*
%TO.C,D18*%
X74215817Y119783383D03*
X74215817Y123083383D03*
%TD*%
D25*
%TO.C,D20*%
X115147763Y113469439D03*
X115833871Y116697327D03*
%TD*%
D24*
%TO.C,D55*%
X270272067Y80095883D03*
X270272067Y83395883D03*
%TD*%
D26*
%TO.C,D64*%
X228889425Y56292995D03*
X228203317Y59520883D03*
%TD*%
D25*
%TO.C,D19*%
X96097763Y117464633D03*
X96783871Y120692521D03*
%TD*%
D26*
%TO.C,D39*%
X217776925Y92805495D03*
X217090817Y96033383D03*
%TD*%
D24*
%TO.C,D59*%
X39290817Y62570883D03*
X39290817Y65870883D03*
%TD*%
D25*
%TO.C,D37*%
X152454013Y85688189D03*
X153140121Y88916077D03*
%TD*%
%TO.C,D63*%
X161635959Y44386745D03*
X162322067Y47614633D03*
%TD*%
%TO.C,D7*%
X146897763Y126169439D03*
X147583871Y129397327D03*
%TD*%
D24*
%TO.C,D42*%
X276622067Y99208383D03*
X276622067Y102508383D03*
%TD*%
D25*
%TO.C,D61*%
X103241513Y57113189D03*
X103927621Y60341077D03*
%TD*%
%TO.C,D47*%
X101310959Y76930495D03*
X101997067Y80158383D03*
%TD*%
D26*
%TO.C,D51*%
X192827621Y68225689D03*
X192141513Y71453577D03*
%TD*%
D24*
%TO.C,D60*%
X63103317Y63364633D03*
X63103317Y66664633D03*
%TD*%
D26*
%TO.C,D12*%
X250771371Y138869439D03*
X250085263Y142097327D03*
%TD*%
%TO.C,D24*%
X208251925Y110267995D03*
X207565817Y113495883D03*
%TD*%
D24*
%TO.C,D57*%
X315515817Y80095883D03*
X315515817Y83395883D03*
%TD*%
D27*
%TO.C,U1*%
X174160000Y97280000D03*
X174160000Y96480000D03*
X174160000Y95680000D03*
X174160000Y94880000D03*
X174160000Y94080000D03*
X174160000Y93280000D03*
X174160000Y92480000D03*
X174160000Y91680000D03*
X174160000Y90880000D03*
X174160000Y90080000D03*
X174160000Y89280000D03*
D28*
X172460000Y87580000D03*
X171660000Y87580000D03*
X170860000Y87580000D03*
X170060000Y87580000D03*
X169260000Y87580000D03*
X168460000Y87580000D03*
X167660000Y87580000D03*
X166860000Y87580000D03*
X166060000Y87580000D03*
X165260000Y87580000D03*
X164460000Y87580000D03*
D27*
X162760000Y89280000D03*
X162760000Y90080000D03*
X162760000Y90880000D03*
X162760000Y91680000D03*
X162760000Y92480000D03*
X162760000Y93280000D03*
X162760000Y94080000D03*
X162760000Y94880000D03*
X162760000Y95680000D03*
X162760000Y96480000D03*
X162760000Y97280000D03*
D28*
X164460000Y98980000D03*
X165260000Y98980000D03*
X166060000Y98980000D03*
X166860000Y98980000D03*
X167660000Y98980000D03*
X168460000Y98980000D03*
X169260000Y98980000D03*
X170060000Y98980000D03*
X170860000Y98980000D03*
X171660000Y98980000D03*
X172460000Y98980000D03*
%TD*%
D26*
%TO.C,D38*%
X198834567Y88095883D03*
X198148459Y91323771D03*
%TD*%
D24*
%TO.C,D32*%
X48815817Y100733383D03*
X48815817Y104033383D03*
%TD*%
D26*
%TO.C,D26*%
X245215121Y118231939D03*
X244529013Y121459827D03*
%TD*%
D24*
%TO.C,D1*%
X27384567Y141214633D03*
X27384567Y144514633D03*
%TD*%
%TO.C,D13*%
X271859567Y139627133D03*
X271859567Y142927133D03*
%TD*%
%TO.C,D15*%
X319484567Y137245883D03*
X319484567Y140545883D03*
%TD*%
D26*
%TO.C,D54*%
X249183871Y80925689D03*
X248497763Y84153577D03*
%TD*%
D25*
%TO.C,D62*%
X142585959Y49149245D03*
X143272067Y52377133D03*
%TD*%
D24*
%TO.C,D17*%
X50403317Y119783383D03*
X50403317Y123083383D03*
%TD*%
D29*
%TO.C,SW1*%
X181100000Y88250000D03*
X177400000Y82050000D03*
X177400000Y88250000D03*
X181100000Y82050000D03*
%TD*%
D24*
%TO.C,D33*%
X75009567Y100733383D03*
X75009567Y104033383D03*
%TD*%
D26*
%TO.C,D11*%
X232064425Y134874245D03*
X231378317Y138102133D03*
%TD*%
D24*
%TO.C,D29*%
X305197067Y118195883D03*
X305197067Y121495883D03*
%TD*%
%TO.C,D3*%
X69453317Y138770883D03*
X69453317Y142070883D03*
%TD*%
D25*
%TO.C,D34*%
X96891513Y97594439D03*
X97577621Y100822327D03*
%TD*%
D26*
%TO.C,D65*%
X253152621Y61081939D03*
X252466513Y64309827D03*
%TD*%
D25*
%TO.C,D8*%
X163830000Y115316000D03*
X164516108Y118543888D03*
%TD*%
D26*
%TO.C,D23*%
X189201925Y106299245D03*
X188515817Y109527133D03*
%TD*%
%TO.C,D52*%
X211083871Y72194439D03*
X210397763Y75422327D03*
%TD*%
D25*
%TO.C,D35*%
X115147763Y93625689D03*
X115833871Y96853577D03*
%TD*%
%TO.C,D22*%
X152454013Y105531939D03*
X153140121Y108759827D03*
%TD*%
D30*
%TO.C,Y1*%
X168140000Y82410000D03*
X170340000Y82410000D03*
X170340000Y80710000D03*
X168140000Y80710000D03*
%TD*%
D24*
%TO.C,D28*%
X286147067Y118195883D03*
X286147067Y121495883D03*
%TD*%
D31*
%TO.C,R2*%
X173200000Y140075000D03*
X173200000Y138250000D03*
%TD*%
D24*
%TO.C,D4*%
X88503317Y140420883D03*
X88503317Y143720883D03*
%TD*%
%TO.C,D56*%
X289322067Y80158383D03*
X289322067Y83458383D03*
%TD*%
%TO.C,D46*%
X79772067Y81683383D03*
X79772067Y84983383D03*
%TD*%
D26*
%TO.C,D41*%
X254740121Y100769439D03*
X254054013Y103997327D03*
%TD*%
D32*
%TO.C,USB1*%
X172108414Y146952055D03*
X171308414Y146952055D03*
X170508414Y146952055D03*
X169708414Y146952055D03*
X168908414Y146952055D03*
D33*
X174158414Y151452055D03*
X166858414Y151452055D03*
X174158414Y146952055D03*
X166858414Y146952055D03*
%TD*%
D34*
%TO.C,F1*%
X163640000Y141040000D03*
X163640000Y138240000D03*
%TD*%
D26*
%TO.C,D40*%
X236483871Y96800689D03*
X235797763Y100028577D03*
%TD*%
D31*
%TO.C,R4*%
X165190000Y134692500D03*
X165190000Y132867500D03*
%TD*%
D25*
%TO.C,D21*%
X133404013Y109500689D03*
X134090121Y112728577D03*
%TD*%
D26*
%TO.C,D53*%
X229683175Y76136745D03*
X228997067Y79364633D03*
%TD*%
D24*
%TO.C,D45*%
X60722067Y81683383D03*
X60722067Y84983383D03*
%TD*%
%TO.C,D16*%
X22622067Y122164633D03*
X22622067Y125464633D03*
%TD*%
%TO.C,D14*%
X290115817Y138039633D03*
X290115817Y141339633D03*
%TD*%
D26*
%TO.C,D25*%
X226508175Y114236745D03*
X225822067Y117464633D03*
%TD*%
D24*
%TO.C,D30*%
X328215817Y118195883D03*
X328215817Y121495883D03*
%TD*%
%TO.C,D44*%
X335359567Y99083383D03*
X335359567Y102383383D03*
%TD*%
D25*
%TO.C,D36*%
X134197763Y89656939D03*
X134883871Y92884827D03*
%TD*%
D24*
%TO.C,D27*%
X267097067Y118989633D03*
X267097067Y122289633D03*
%TD*%
D26*
%TO.C,D9*%
X194758175Y126142995D03*
X194072067Y129370883D03*
%TD*%
D31*
%TO.C,R3*%
X169750000Y140112500D03*
X169750000Y138287500D03*
%TD*%
D25*
%TO.C,D49*%
X138166513Y69019439D03*
X138852621Y72247327D03*
%TD*%
D24*
%TO.C,D2*%
X50403317Y138833383D03*
X50403317Y142133383D03*
%TD*%
D25*
%TO.C,D48*%
X119910263Y72988189D03*
X120596371Y76216077D03*
%TD*%
D26*
%TO.C,D10*%
X213014425Y130905495D03*
X212328317Y134133383D03*
%TD*%
D25*
%TO.C,D50*%
X156873459Y65024245D03*
X157559567Y68252133D03*
%TD*%
D24*
%TO.C,D31*%
X18653317Y103052133D03*
X18653317Y106352133D03*
%TD*%
%TO.C,D43*%
X294878317Y99083383D03*
X294878317Y102383383D03*
%TD*%
D25*
%TO.C,D5*%
X109591513Y134106939D03*
X110277621Y137334827D03*
%TD*%
D24*
%TO.C,D66*%
X333772067Y61108383D03*
X333772067Y64408383D03*
%TD*%
D25*
%TO.C,D6*%
X128641513Y130138189D03*
X129327621Y133366077D03*
%TD*%
D24*
%TO.C,D58*%
X341709567Y80095883D03*
X341709567Y83395883D03*
%TD*%
D35*
%TO.C,R1*%
X159070000Y100450000D03*
X160895000Y100450000D03*
%TD*%
M02*
