M48
; DRILL file {KiCad 7.0.7} date 2023 October 16, Monday 19:58:43
; FORMAT={-:-/ absolute / inch / decimal}
; #@! TF.CreationDate,2023-10-16T19:58:43+09:00
; #@! TF.GenerationSoftware,Kicad,Pcbnew,7.0.7
; #@! TF.FileFunction,NonPlated,1,2,NPTH
FMAT,2
INCH
; #@! TA.AperFunction,NonPlated,NPTH,ComponentDrill
T1C0.0689
; #@! TA.AperFunction,NonPlated,NPTH,ComponentDrill
T2C0.1200
; #@! TA.AperFunction,NonPlated,NPTH,ComponentDrill
T3C0.1570
%
G90
G05
T1
X0.2156Y4.1371
X0.3781Y4.8871
X0.5406Y5.6371
X0.6156Y4.1371
X0.7781Y4.8871
X0.9406Y5.6371
X1.0094Y2.5433
X1.4094Y4.0433
X1.4094Y2.5433
X1.4154Y3.2933
X1.4781Y5.5433
X1.4781Y4.7933
X1.8094Y4.0433
X1.8154Y3.2933
X1.8781Y5.5433
X1.8781Y4.7933
X1.9469Y2.5433
X2.2281Y5.5433
X2.3469Y2.5433
X2.4156Y4.7933
X2.4406Y4.0433
X2.6281Y5.5433
X2.6341Y3.2933
X2.8156Y4.7933
X2.8406Y4.0433
X2.9781Y5.6058
X3.0341Y3.2933
X3.3129Y4.8088
X3.3263Y4.0388
X3.3781Y5.6058
X3.4988Y3.2369
X3.5657Y2.4548
X3.7042Y4.7256
X3.7175Y3.9557
X3.8344Y5.466
X3.89Y3.1538
X3.9569Y2.3716
X4.0465Y4.6529
X4.0599Y3.8829
X4.2257Y5.3828
X4.2324Y3.081
X4.4378Y4.5697
X4.4511Y3.7997
X4.568Y5.3101
X4.6236Y2.9978
X4.76Y2.1998
X4.7802Y4.4969
X4.7935Y3.727
X4.9593Y5.2269
X4.966Y2.9251
X5.1513Y2.1167
X5.1714Y4.4138
X5.1848Y3.6438
X5.3016Y5.1541
X5.3573Y2.8419
X5.5138Y4.341
X5.5271Y3.571
X5.6929Y5.071
X5.6996Y2.7691
X5.8607Y1.9648
X5.905Y4.2578
X5.9184Y3.4879
X6.0352Y4.9982
X6.0909Y2.686
X6.2519Y1.8816
X6.4265Y4.915
X6.9338Y4.1901
X7.0544Y2.685
X7.1294Y5.0
X7.2944Y3.5
X7.325Y4.2733
X7.4456Y2.7681
X7.5206Y5.0831
X7.6674Y4.3461
X7.6856Y3.5831
X7.788Y2.8409
X7.8522Y2.0878
X7.863Y5.1559
X8.028Y3.6559
X8.0586Y4.4292
X8.1792Y2.9241
X8.2435Y2.171
X8.2542Y5.2391
X8.401Y4.502
X8.4192Y3.7391
X8.5216Y2.9968
X8.5966Y5.3118
X8.7616Y3.8118
X8.7922Y4.5852
X8.9128Y3.08
X8.9878Y5.395
X9.1346Y4.6579
X9.1528Y3.895
X9.2552Y3.1528
X9.3302Y5.4678
X9.4233Y2.3577
X9.4952Y3.9678
X9.5259Y4.7411
X9.6465Y3.2359
X9.7215Y5.5509
X9.8146Y2.4409
X9.8865Y4.0509
X9.9827Y4.7808
X10.1202Y3.2495
X10.1852Y5.5945
X10.364Y3.9995
X10.3827Y4.7808
X10.5202Y3.2495
X10.5852Y5.5945
X10.7327Y4.7495
X10.764Y3.9995
X10.8702Y3.2495
X10.9202Y5.4995
X11.114Y3.9995
X11.1327Y4.7495
X11.2702Y3.2495
X11.3202Y5.4995
X11.4827Y4.7495
X11.514Y3.9995
X11.8827Y4.7495
X11.9015Y3.2495
X12.0452Y5.4995
X12.3015Y3.2495
X12.3327Y3.9995
X12.4202Y4.7495
X12.4452Y5.4995
X12.6202Y2.4995
X12.7327Y3.9995
X12.8202Y4.7495
X12.9327Y3.2495
X13.0202Y2.4995
X13.3327Y3.2495
T2
X1.1454Y3.5683
X2.0854Y3.5683
X4.4387Y1.987
X5.3582Y1.7916
X7.6453Y1.7627
X8.5647Y1.9581
X11.7752Y5.7745
X12.0627Y3.7245
X12.7152Y5.7745
X13.0027Y3.7245
T3
X0.4156Y4.1371
X0.5781Y4.8871
X0.7406Y5.6371
X1.1454Y2.9683
X1.2094Y2.5433
X1.6094Y4.0433
X1.6154Y3.2933
X1.6781Y5.5433
X1.6781Y4.7933
X2.0854Y2.9683
X2.1469Y2.5433
X2.4281Y5.5433
X2.6156Y4.7933
X2.6406Y4.0433
X2.8341Y3.2933
X3.1781Y5.6058
X3.5086Y4.7672
X3.5219Y3.9973
X3.6944Y3.1953
X3.7613Y2.4132
X4.03Y5.4244
X4.2422Y4.6113
X4.2555Y3.8413
X4.428Y3.0394
X4.5635Y2.5739
X4.7636Y5.2685
X4.9557Y2.1583
X4.9758Y4.4554
X4.9891Y3.6854
X5.1616Y2.8835
X5.483Y2.3784
X5.4973Y5.1126
X5.7094Y4.2994
X5.7227Y3.5295
X5.8952Y2.7275
X6.0563Y1.9232
X6.2309Y4.9566
X7.1294Y4.2317
X7.25Y2.7266
X7.325Y5.0416
X7.49Y3.5416
X7.5205Y2.3496
X7.863Y4.3876
X7.9836Y2.8825
X8.0478Y2.1294
X8.0586Y5.1975
X8.2236Y3.6975
X8.44Y2.545
X8.5966Y4.5436
X8.7172Y3.0384
X8.7922Y5.3534
X8.9572Y3.8534
X9.3302Y4.6995
X9.4508Y3.1944
X9.5258Y5.5094
X9.619Y2.3993
X9.6908Y4.0094
X10.1827Y4.7808
X10.3202Y3.2495
X10.3852Y5.5945
X10.564Y3.9995
X10.9327Y4.7495
X11.0702Y3.2495
X11.1202Y5.4995
X11.314Y3.9995
X11.6827Y4.7495
X11.7752Y5.1745
X12.0627Y4.3245
X12.1015Y3.2495
X12.2452Y5.4995
X12.5327Y3.9995
X12.6202Y4.7495
X12.7152Y5.1745
X12.8202Y2.4995
X13.0027Y4.3245
X13.1327Y3.2495
T0
M30
